# Blender 3.5.1
# www.blender.org
mtllib MachineGunTurretBase.mtl
o M2BrowningBase
v 1.000000 0.100000 -1.000000
v 1.000000 -0.100000 -1.000000
v 1.000000 0.100000 1.000000
v 1.000000 -0.100000 1.000000
v -1.000000 0.100000 -1.000000
v -1.000000 -0.100000 -1.000000
v -1.000000 0.100000 1.000000
v -1.000000 -0.100000 1.000000
v 0.300000 0.200000 0.300000
v -0.300000 0.200000 0.300000
v 0.300000 0.200000 -0.300000
v -0.300000 0.200000 -0.300000
v 0.150000 0.200000 0.150000
v -0.150000 0.200000 0.150000
v 0.150000 0.200000 -0.150000
v -0.150000 0.200000 -0.150000
v 0.150000 0.300000 0.150000
v -0.150000 0.300000 0.150000
v 0.150000 0.300000 -0.150000
v -0.150000 0.300000 -0.150000
v 0.075000 0.300000 0.075000
v -0.075000 0.300000 0.075000
v 0.075000 0.300000 -0.075000
v -0.075000 0.300000 -0.075000
v 0.075000 1.300000 0.075000
v -0.075000 1.300000 0.075000
v 0.075000 1.300000 -0.075000
v -0.075000 1.300000 -0.075000
v 0.150000 2.300000 0.150000
v -0.150000 2.300000 0.150000
v 0.150000 2.300000 -0.150000
v -0.150000 2.300000 -0.150000
vn -0.0000 0.9899 0.1414
vn -0.0000 -0.0000 1.0000
vn -1.0000 -0.0000 -0.0000
vn -0.0000 -1.0000 -0.0000
vn 1.0000 -0.0000 -0.0000
vn -0.0000 -0.0000 -1.0000
vn -0.0000 1.0000 -0.0000
vn -0.1414 0.9899 -0.0000
vn 0.1414 0.9899 -0.0000
vn -0.0000 0.9899 -0.1414
vn -0.9972 -0.0748 -0.0000
vn -0.0000 -0.0748 0.9972
vn -0.0000 -0.0748 -0.9972
vn 0.9972 -0.0748 -0.0000
vt 0.625000 0.500000
vt 0.375000 0.500000
vt 0.625000 0.750000
vt 0.375000 0.750000
vt 0.625000 0.250000
vt 0.125000 0.500000
vt 0.375000 0.250000
vt 0.625000 1.000000
vt 0.625000 0.000000
vt 0.375000 1.000000
vt 0.375000 0.000000
vt 0.125000 0.750000
vt 0.625000 0.750000
vt 0.625000 0.000000
vt 0.625000 1.000000
vt 0.625000 0.500000
vt 0.625000 0.250000
vt 0.625000 0.750000
vt 0.625000 0.000000
vt 0.625000 1.000000
vt 0.625000 0.500000
vt 0.625000 0.250000
vt 0.625000 0.750000
vt 0.625000 0.000000
vt 0.625000 1.000000
vt 0.625000 0.500000
vt 0.625000 0.250000
vt 0.625000 0.750000
vt 0.625000 0.000000
vt 0.625000 1.000000
vt 0.625000 0.500000
vt 0.625000 0.250000
vt 0.625000 0.750000
vt 0.625000 0.000000
vt 0.625000 1.000000
vt 0.625000 0.500000
vt 0.625000 0.250000
vt 0.625000 0.750000
vt 0.625000 0.000000
vt 0.875000 0.750000
vt 0.625000 1.000000
vt 0.625000 0.500000
vt 0.875000 0.500000
vt 0.625000 0.250000
s 0
usemtl Material
f 7/8/1 3/3/1 9/13/1 10/15/1
f 4/4/2 3/3/2 7/8/2 8/10/2
f 8/11/3 7/9/3 5/5/3 6/7/3
f 6/6/4 2/2/4 4/4/4 8/12/4
f 2/2/5 1/1/5 3/3/5 4/4/5
f 6/7/6 5/5/6 1/1/6 2/2/6
f 11/16/7 12/17/7 16/22/7 15/21/7
f 5/5/8 7/9/8 10/14/8 12/17/8
f 3/3/9 1/1/9 11/16/9 9/13/9
f 1/1/10 5/5/10 12/17/10 11/16/10
f 16/22/3 14/19/3 18/24/3 20/27/3
f 9/13/7 11/16/7 15/21/7 13/18/7
f 12/17/7 10/14/7 14/19/7 16/22/7
f 10/15/7 9/13/7 13/18/7 14/20/7
f 20/27/7 18/24/7 22/29/7 24/32/7
f 14/20/2 13/18/2 17/23/2 18/25/2
f 15/21/6 16/22/6 20/27/6 19/26/6
f 13/18/5 15/21/5 19/26/5 17/23/5
f 23/31/6 24/32/6 28/37/6 27/36/6
f 18/25/7 17/23/7 21/28/7 22/30/7
f 19/26/7 20/27/7 24/32/7 23/31/7
f 17/23/7 19/26/7 23/31/7 21/28/7
f 28/37/11 26/34/11 30/39/11 32/44/11
f 21/28/5 23/31/5 27/36/5 25/33/5
f 24/32/3 22/29/3 26/34/3 28/37/3
f 22/30/2 21/28/2 25/33/2 26/35/2
f 31/42/7 32/43/7 30/40/7 29/38/7
f 26/35/12 25/33/12 29/38/12 30/41/12
f 27/36/13 28/37/13 32/44/13 31/42/13
f 25/33/14 27/36/14 31/42/14 29/38/14
